HIERARCHY
ROOT Joint1
{
	OFFSET 0.000000 0.000000 0.000000
	CHANNELS 6 Xposition Yposition Zposition Xrotation Yrotation Zrotation
	JOINT Joint2
	{
		OFFSET -0.000000 0.000000 1.456275
		CHANNELS 6 Xposition Yposition Zposition Xrotation Yrotation Zrotation
		JOINT Joint3
		{
			OFFSET -0.000000 0.000002 1.471446
			CHANNELS 6 Xposition Yposition Zposition Xrotation Yrotation Zrotation
			JOINT Joint4
			{
				OFFSET 0.625745 0.000000 0.917755
				CHANNELS 6 Xposition Yposition Zposition Xrotation Yrotation Zrotation
				JOINT Joint5
				{
					OFFSET -0.629534 0.000001 0.940221
					CHANNELS 6 Xposition Yposition Zposition Xrotation Yrotation Zrotation
					JOINT Joint6
					{
						OFFSET -0.000001 0.113772 1.960660
						CHANNELS 6 Xposition Yposition Zposition Xrotation Yrotation Zrotation
						JOINT Joint7
						{
							OFFSET -0.669733 -0.113771 0.388340
							CHANNELS 6 Xposition Yposition Zposition Xrotation Yrotation Zrotation
							End Site
							{
								OFFSET 0.005509 0.005509 0.438980
							}
						}
					}
				}
			}
		}
	}
}
MOTION
Frames: 17
Frame Time: 0.041667
0.000000 0.000000 0.000000 -0.000000 1.019410 0.887431 -0.000000 0.000000 1.456275 0.000000 -68.482789 -0.000000 -0.000000 0.000002 1.471446 -0.000001 -1.133463 -27.091363 0.625745 0.000000 0.917755 0.000002 147.558164 0.000000 -0.629533 0.000001 0.940221 0.000001 1.709736 11.364847 -0.000001 0.113772 1.960661 -88.303903 80.046703 -0.000016 -0.669733 -0.113771 0.388340 0.306455 2.655326 50.953915 
0.000000 0.000000 0.000000 -0.000000 1.019410 0.911189 -0.000000 0.000000 1.456275 0.000000 -69.111426 0.000000 -0.000000 0.000002 1.471446 -0.000001 -1.133463 -27.815279 0.625745 0.000000 0.917755 0.000002 147.893458 -0.000001 -0.629534 0.000001 0.940221 0.000001 1.709735 11.669408 -0.000001 0.113772 1.960661 -88.303909 79.781213 -0.000013 -0.669733 -0.113771 0.388341 0.309816 2.615615 48.707865 
0.000000 0.000000 0.000000 -0.000000 1.019410 0.936163 -0.000000 0.000000 1.456275 0.000000 -69.772227 0.000000 -0.000000 0.000002 1.471446 -0.000001 -1.133462 -28.576226 0.625745 0.000000 0.917755 0.000003 148.245909 0.000000 -0.629534 0.000001 0.940221 0.000000 1.709737 11.989553 -0.000002 0.113772 1.960661 -88.303889 79.502152 -0.000008 -0.669734 -0.113771 0.388340 0.311665 2.573759 46.346966 
0.000000 0.000000 0.000000 -0.000000 1.019410 0.961745 -0.000000 0.000000 1.456275 -0.000000 -70.449091 -0.000000 -0.000001 0.000002 1.471446 -0.000001 -1.133464 -29.355682 0.625744 0.000000 0.917755 0.000004 148.606926 0.000001 -0.629533 0.000001 0.940221 0.000000 1.709736 12.317481 -0.000001 0.113772 1.960661 -88.303889 79.216295 -0.000017 -0.669733 -0.113771 0.388340 0.311769 2.530841 43.928727 
0.000000 0.000000 0.000000 -0.000000 1.019410 0.987325 -0.000000 0.000000 1.456275 -0.000000 -71.125943 0.000000 -0.000000 0.000002 1.471446 -0.000001 -1.133462 -30.135122 0.625745 0.000000 0.917755 0.000003 148.967942 -0.000003 -0.629534 0.000001 0.940221 -0.000000 1.709738 12.645410 -0.000001 0.113772 1.960660 -88.303903 78.930452 -0.000003 -0.669733 -0.113771 0.388340 0.310061 2.487970 41.510622 
0.000000 0.000000 0.000000 -0.000000 1.019410 1.012298 -0.000000 -0.000000 1.456275 0.000000 -71.786716 -0.000000 -0.000000 0.000002 1.471446 -0.000001 -1.133461 -30.896047 0.625745 0.000001 0.917755 0.000006 149.320366 -0.000001 -0.629534 0.000001 0.940221 0.000000 1.709737 12.965538 -0.000001 0.113772 1.960660 -88.303909 78.651384 -0.000016 -0.669733 -0.113771 0.388341 0.306646 2.446211 39.150050 
0.000000 0.000000 0.000000 -0.000000 1.019410 1.036057 -0.000000 -0.000000 1.456275 0.000000 -72.415339 -0.000000 -0.000000 0.000002 1.471446 -0.000001 -1.133464 -31.619954 0.625745 0.000000 0.917755 0.000006 149.655674 0.000002 -0.629534 0.000001 0.940221 -0.000001 1.709736 13.270100 -0.000002 0.113772 1.960660 -88.303896 78.385901 -0.000014 -0.669733 -0.113771 0.388340 0.301804 2.406648 36.904376 
0.000000 0.000000 0.000000 -0.000000 1.019410 1.057993 -0.000000 0.000000 1.456275 -0.000000 -72.995762 -0.000000 -0.000000 0.000002 1.471446 -0.000001 -1.133463 -32.288343 0.625745 0.000000 0.917755 0.000003 149.965245 -0.000002 -0.629534 0.000001 0.940221 0.000001 1.709737 13.551305 -0.000002 0.113772 1.960661 -88.303903 78.140779 -0.000009 -0.669733 -0.113771 0.388340 0.295956 2.370314 34.830963 
0.000000 0.000000 0.000000 -0.000000 1.019410 1.077781 -0.000000 0.000000 1.456275 0.000000 -73.519350 -0.000000 -0.000000 0.000002 1.471446 -0.000001 -1.133464 -32.891292 0.625745 0.000000 0.917755 0.000003 150.244504 0.000002 -0.629534 0.000001 0.940221 0.000001 1.709736 13.804976 -0.000001 0.113772 1.960661 -88.303903 77.919665 -0.000009 -0.669733 -0.113771 0.388340 0.289558 2.337740 32.960604 
0.000000 0.000000 0.000000 -0.000000 1.019410 1.096220 -0.000000 0.000000 1.456275 -0.000000 -74.007251 -0.000000 -0.000000 0.000002 1.471446 -0.000001 -1.133462 -33.453133 0.625744 0.000000 0.917755 0.000004 150.504735 -0.000000 -0.629534 0.000001 0.940221 0.000001 1.709737 14.041353 -0.000001 0.113772 1.960661 -88.303896 77.713612 0.000001 -0.669733 -0.113771 0.388340 0.282641 2.307590 31.217810 
0.000000 0.000000 0.000000 -0.000000 1.019410 1.114390 -0.000000 0.000000 1.456275 -0.000000 -74.488015 0.000000 -0.000000 0.000002 1.471446 -0.000001 -1.133461 -34.006764 0.625745 0.000000 0.917755 0.000005 150.761167 0.000001 -0.629534 0.000001 0.940221 0.000000 1.709736 14.274271 -0.000001 0.113772 1.960661 -88.303896 77.510578 -0.000009 -0.669733 -0.113771 0.388339 0.274928 2.278094 29.500495 
0.000000 0.000000 0.000000 -0.000000 1.019410 1.133370 -0.000000 -0.000000 1.456275 -0.000001 -74.990218 -0.000000 -0.000000 0.000002 1.471446 -0.000001 -1.133464 -34.585086 0.625745 0.000001 0.917755 0.000002 151.029020 0.000000 -0.629534 0.000001 0.940221 0.000001 1.709737 14.517584 -0.000001 0.113772 1.960660 -88.303903 77.298480 -0.000001 -0.669733 -0.113771 0.388340 0.265936 2.247554 27.706630 
0.000000 0.000000 0.000000 -0.000000 1.019410 1.154241 -0.000000 0.000000 1.456275 -0.000000 -75.542439 -0.000000 -0.000000 0.000002 1.471446 -0.000001 -1.133463 -35.221001 0.625745 0.000000 0.917756 0.000002 151.323565 -0.000001 -0.629534 0.000001 0.940221 -0.000001 1.709736 14.785123 -0.000001 0.113772 1.960661 -88.303896 77.065270 -0.000001 -0.669733 -0.113771 0.388341 0.254944 2.214306 25.734162 
0.000000 0.000000 0.000000 -0.000000 1.019410 1.177648 -0.000000 -0.000000 1.456275 0.000000 -76.161773 -0.000000 -0.000000 0.000002 1.471446 -0.000001 -1.133464 -35.934206 0.625745 0.000000 0.917755 0.000004 151.653887 -0.000000 -0.629534 0.000001 0.940221 -0.000001 1.709739 15.085181 -0.000001 0.113772 1.960660 -88.303896 76.803708 -0.000010 -0.669733 -0.113771 0.388340 0.241267 2.177494 23.522002 
0.000000 0.000000 0.000000 -0.000000 1.019410 1.202505 -0.000000 0.000000 1.456275 0.000000 -76.819472 0.000000 -0.000000 0.000002 1.471446 -0.000001 -1.133462 -36.691585 0.625745 0.000000 0.917755 0.000004 152.004685 -0.000001 -0.629534 0.000001 0.940221 -0.000002 1.709736 15.403829 -0.000001 0.113772 1.960660 -88.303896 76.525945 -0.000006 -0.669733 -0.113771 0.388340 0.225195 2.139012 21.172856 
0.000000 0.000000 0.000000 -0.000000 1.019410 1.227292 -0.000000 0.000000 1.456275 0.000000 -77.475328 -0.000000 -0.000000 0.000002 1.471446 -0.000001 -1.133463 -37.446843 0.625745 0.000000 0.917755 0.000003 152.354514 -0.000003 -0.629534 0.000001 0.940220 0.000001 1.709736 15.721576 -0.000001 0.113772 1.960661 -88.303896 76.248967 -0.000006 -0.669733 -0.113771 0.388341 0.207610 2.101325 18.830359 
0.000000 0.000000 0.000000 -0.000000 1.019410 1.250489 -0.000000 0.000000 1.456275 -0.000001 -78.089109 0.000000 -0.000001 0.000002 1.471446 -0.000001 -1.133462 -38.153652 0.625745 0.000000 0.917755 0.000003 152.681885 -0.000002 -0.629534 0.000001 0.940221 -0.000001 1.709738 16.018942 -0.000001 0.113772 1.960660 -88.303903 75.989748 -0.000004 -0.669733 -0.113771 0.388340 0.189768 2.066733 16.638155 
